<svg width="360" height="315" viewBox="0 0 360 315" fill="none" xmlns="http://www.w3.org/2000/svg">
<path d="M180.454 0C190.44 0 193.769 7.0736 193.769 7.0736L272.827 143.968L180.038 198.893L88.0812 143.968L167.555 7.0736C167.555 7.0736 170.468 0 180.454 0Z" fill="#A6F6FF"/>
<path d="M180.454 0C190.44 0 193.769 7.0736 193.769 7.0736L272.827 143.968L180.038 198.893L88.0812 143.968L167.555 7.0736C167.555 7.0736 170.468 0 180.454 0Z" fill="#A6F6FF"/>
<path d="M180.454 0C190.44 0 193.769 7.0736 193.769 7.0736L272.827 143.968L180.038 198.893L88.0812 143.968L167.555 7.0736C167.555 7.0736 170.468 0 180.454 0Z" fill="#A6F6FF"/>
<path d="M357.694 306.768C352.701 315.417 344.91 314.763 344.91 314.763L186.827 314.781L185.656 206.962L279.2 154.787L358.017 292.061C358.017 292.061 362.687 298.12 357.694 306.768Z" fill="#A5E6FF"/>
<path d="M357.694 306.768C352.701 315.417 344.91 314.763 344.91 314.763L186.827 314.781L185.656 206.962L279.2 154.787L358.017 292.061C358.017 292.061 362.687 298.12 357.694 306.768Z" fill="#A5E6FF"/>
<path d="M357.694 306.768C352.701 315.417 344.91 314.763 344.91 314.763L186.827 314.781L185.656 206.962L279.2 154.787L358.017 292.061C358.017 292.061 362.687 298.12 357.694 306.768Z" fill="#A5E6FF"/>
<path d="M2.36587 306.768C-2.62722 298.12 1.83432 291.701 1.83432 291.701L80.8598 154.787L174.82 207.682L173.233 314.781L14.9412 314.402C14.9412 314.402 7.35895 315.417 2.36587 306.768Z" fill="#BEE7FF"/>
<path d="M2.36587 306.768C-2.62722 298.12 1.83432 291.701 1.83432 291.701L80.8598 154.787L174.82 207.682L173.233 314.781L14.9412 314.402C14.9412 314.402 7.35895 315.417 2.36587 306.768Z" fill="#BEE7FF"/>
<path d="M2.36587 306.768C-2.62722 298.12 1.83432 291.701 1.83432 291.701L80.8598 154.787L174.82 207.682L173.233 314.781L14.9412 314.402C14.9412 314.402 7.35895 315.417 2.36587 306.768Z" fill="#BEE7FF"/>
<g filter="url(#filter0_d_129_2261)">
<ellipse cx="180" cy="191" rx="53" ry="53" fill="white"/>
<path d="M180 249C212.033 249 238 223.033 238 191C238 158.967 212.033 133 180 133C147.967 133 122 158.967 122 191C122 223.033 147.967 249 180 249Z" stroke="#EEF8FF" stroke-width="10"/>
</g>
<path d="M164.84 180.839H167.194V191.443H164.84V180.839ZM157.426 185.151H162.002V187.021H157.426V185.151ZM160.902 181.213H163.212V191.311H160.902V181.213ZM150.87 188.803H152.212C155.248 188.803 157.096 188.759 159.318 188.363L159.472 190.321C157.228 190.717 155.336 190.761 152.212 190.761H150.87V188.803ZM150.87 181.873H158.614V183.809H153.29V190.101H150.87V181.873ZM153.532 192.213H167.194V197.317H156.018V200.001H153.576V195.513H164.752V194.127H153.532V192.213ZM153.576 198.835H167.832V200.771H153.576V198.835ZM184.22 180.839H186.684V201.013H184.22V180.839ZM170.47 182.819H181.844V184.777H170.47V182.819ZM170.206 196.239L169.964 194.215C173.638 194.215 178.544 194.149 182.724 193.643L182.878 195.425C178.588 196.151 173.858 196.217 170.206 196.239ZM172.428 184.337H174.804V194.743H172.428V184.337ZM177.51 184.337H179.908V194.743H177.51V184.337ZM192.117 181.389H204.965V183.347H192.117V181.389ZM190.049 190.321H208.199V192.279H190.049V190.321ZM197.067 187.967H199.509V191.641H197.067V187.967ZM203.645 181.389H206.131V183.017C206.131 184.711 206.131 186.691 205.647 189.309L203.161 189.155C203.645 186.581 203.645 184.711 203.645 183.017V181.389ZM204.393 184.865V186.647L191.919 187.197L191.589 185.173L204.393 184.865ZM192.183 193.929H205.977V200.771H192.183V193.929ZM203.579 195.865H194.603V198.813H203.579V195.865Z" fill="#1397ED"/>
<path d="M146.762 87.7533H148.122V90.9933C148.122 95.1533 145.882 99.0133 142.922 100.513L141.902 99.1533C144.582 97.8733 146.762 94.4133 146.762 90.9933V87.7533ZM147.042 87.7533H148.402V90.9933C148.402 94.2933 150.562 97.6133 153.242 98.8533L152.242 100.173C149.302 98.7333 147.042 95.0133 147.042 90.9933V87.7533ZM155.122 86.1733H156.782V104.293H155.122V86.1733ZM164.64 88.1333H166V89.5933C166 92.9133 164 95.6933 160.96 96.7933L160.12 95.4733C162.84 94.5133 164.64 92.1733 164.64 89.5933V88.1333ZM164.94 88.1333H166.3V89.5733C166.3 91.9333 168.02 94.0533 170.68 94.9333L169.88 96.2333C166.86 95.2333 164.94 92.6533 164.94 89.5733V88.1333ZM160.62 87.5333H170.28V88.8933H160.62V87.5333ZM172.56 86.1933H174.22V97.0933H172.56V86.1933ZM173.76 90.7733H176.9V92.1733H173.76V90.7733ZM168.46 97.5733C172.14 97.5733 174.4 98.7933 174.4 100.893C174.4 103.013 172.14 104.233 168.46 104.233C164.78 104.233 162.52 103.013 162.52 100.893C162.52 98.7933 164.78 97.5733 168.46 97.5733ZM168.46 98.9133C165.78 98.9133 164.14 99.6333 164.14 100.893C164.14 102.173 165.78 102.933 168.46 102.933C171.14 102.933 172.78 102.173 172.78 100.893C172.78 99.6333 171.14 98.9133 168.46 98.9133ZM183.139 95.7333H199.519V97.0933H183.139V95.7333ZM190.619 96.4133H192.279V100.573H190.619V96.4133ZM185.219 102.513H197.699V103.873H185.219V102.513ZM185.219 98.9733H186.859V103.033H185.219V98.9733ZM185.319 86.7533H186.959V89.0533H195.699V86.7533H197.359V93.9933H185.319V86.7533ZM186.959 90.3533V92.6533H195.699V90.3533H186.959ZM210.638 89.9733H214.918V91.3533H210.638V89.9733ZM205.858 87.1133H207.218V88.9933C207.218 92.4733 205.278 95.3333 202.238 96.4933L201.378 95.1733C204.098 94.1733 205.858 91.7533 205.858 88.9933V87.1133ZM206.158 87.1133H207.498V89.0733C207.498 91.5533 209.298 93.8733 211.898 94.7933L211.018 96.0933C208.118 94.9933 206.158 92.2533 206.158 89.0733V87.1133ZM204.158 97.8733H216.218V104.273H214.558V99.2133H204.158V97.8733ZM214.558 86.1933H216.218V96.8733H214.558V86.1933Z" fill="#333333"/>
<path d="M51.0781 264.02H64.3581V265.32H51.0781V264.02ZM51.1581 268.76H64.2781V270.04H51.1581V268.76ZM53.8181 264.52H55.4781V269.6H53.8181V264.52ZM59.9781 264.52H61.6181V269.6H59.9781V264.52ZM49.5581 271.54H65.8981V272.88H49.5581V271.54ZM51.5381 274.46H63.8181V278.42H53.2181V280.6H51.5781V277.24H62.1781V275.7H51.5381V274.46ZM51.5781 280.1H64.3581V281.36H51.5781V280.1ZM81.4166 263.48H82.9966V275.8H81.4166V263.48ZM78.5166 268.2H81.9166V269.56H78.5166V268.2ZM77.4366 263.82H78.9966V274.22H77.4366V263.82ZM68.5966 272.62H69.7566C72.3166 272.62 74.1966 272.54 76.3766 272.08L76.5566 273.42C74.2766 273.88 72.3766 273.96 69.7566 273.96H68.5966V272.62ZM68.5566 264.9H75.3566V269.96H70.1966V273.5H68.5966V268.7H73.7566V266.24H68.5566V264.9ZM76.1766 274.98H77.5766V275.44C77.5766 278.62 74.3166 280.86 70.6966 281.5L70.0366 280.2C73.2166 279.72 76.1766 277.78 76.1766 275.44V274.98ZM76.3966 274.98H77.8166V275.44C77.8166 277.78 80.7766 279.72 83.9566 280.2L83.2966 281.5C79.6766 280.86 76.3966 278.62 76.3966 275.44V274.98ZM85.955 272.58H102.295V273.94H85.955V272.58ZM93.295 270.16H94.935V273.28H93.295V270.16ZM87.475 264.04H100.755V265.4H87.475V264.04ZM87.555 269.18H100.675V270.54H87.555V269.18ZM90.215 264.64H91.875V270.06H90.215V264.64ZM96.375 264.64H98.015V270.06H96.375V264.64ZM87.955 275.62H100.295V281.32H87.955V275.62ZM98.675 276.94H89.595V279.98H98.675V276.94ZM122.654 263.48H124.254V281.56H122.654V263.48ZM119.734 270.74H123.194V272.1H119.734V270.74ZM115.054 265.8H116.654C116.654 270.46 115.054 274.78 109.894 277.68L108.914 276.5C113.454 273.96 115.054 270.3 115.054 266.12V265.8ZM109.614 265.8H115.614V267.18H109.614V265.8ZM118.634 263.96H120.214V280.68H118.634V263.96ZM127.873 264.22H129.513V266.82H134.613V264.22H136.233V272.12H127.873V264.22ZM129.513 268.12V270.78H134.613V268.12H129.513ZM139.493 263.48H141.153V272.8H139.493V263.48ZM140.433 267.36H143.813V268.74H140.433V267.36ZM129.673 273.68H141.153V278.06H131.353V280.78H129.713V276.82H139.533V275H129.673V273.68ZM129.713 280.04H141.813V281.36H129.713V280.04Z" fill="#333333"/>
<path d="M241.137 265.28H249.437V276.98H241.137V265.28ZM247.817 266.62H242.757V275.64H247.817V266.62ZM252.657 263.48H254.337V281.56H252.657V263.48ZM253.937 270.7H257.297V272.1H253.937V270.7ZM264.956 265.62H266.516C266.516 270.3 265.116 274.76 259.656 277.82L258.716 276.62C263.576 273.98 264.956 270.16 264.956 265.88V265.62ZM259.596 265.62H265.576V266.98H259.596V265.62ZM264.756 269.8V271.04L258.956 271.64L258.696 270.2L264.756 269.8ZM265.116 270.62H269.276V271.96H265.116V270.62ZM272.396 263.48H273.996V281.56H272.396V263.48ZM268.656 263.94H270.216V280.64H268.656V263.94ZM277.874 272.06H279.334C283.234 272.06 285.374 271.98 287.914 271.56L288.094 272.88C285.474 273.34 283.274 273.4 279.334 273.4H277.874V272.06ZM277.874 264.8H286.474V266.14H279.514V272.74H277.874V264.8ZM278.974 268.38H285.974V269.7H278.974V268.38ZM289.974 263.5H291.654V274.68H289.974V263.5ZM285.674 274.94C289.434 274.94 291.734 276.14 291.734 278.22C291.734 280.32 289.434 281.52 285.674 281.52C281.894 281.52 279.594 280.32 279.594 278.22C279.594 276.14 281.894 274.94 285.674 274.94ZM285.674 276.26C282.914 276.26 281.254 276.98 281.254 278.22C281.254 279.5 282.914 280.22 285.674 280.22C288.414 280.22 290.074 279.5 290.074 278.22C290.074 276.98 288.414 276.26 285.674 276.26Z" fill="#333333"/>
<defs>
<filter id="filter0_d_129_2261" x="87" y="108" width="186" height="186" filterUnits="userSpaceOnUse" color-interpolation-filters="sRGB">
<feFlood flood-opacity="0" result="BackgroundImageFix"/>
<feColorMatrix in="SourceAlpha" type="matrix" values="0 0 0 0 0 0 0 0 0 0 0 0 0 0 0 0 0 0 127 0" result="hardAlpha"/>
<feOffset dy="10"/>
<feGaussianBlur stdDeviation="15"/>
<feComposite in2="hardAlpha" operator="out"/>
<feColorMatrix type="matrix" values="0 0 0 0 0.3 0 0 0 0 0.741538 0 0 0 0 1 0 0 0 0.2 0"/>
<feBlend mode="normal" in2="BackgroundImageFix" result="effect1_dropShadow_129_2261"/>
<feBlend mode="normal" in="SourceGraphic" in2="effect1_dropShadow_129_2261" result="shape"/>
</filter>
</defs>
</svg>
