<svg width="93" height="40" viewBox="0 0 93 40" fill="none" xmlns="http://www.w3.org/2000/svg">
<g clip-path="url(#clip0_36_31271)">
<path d="M14.3555 14.9907C14.7779 14.9907 15.171 15.0462 15.5347 15.1572C15.8965 15.2663 16.2114 15.4328 16.4754 15.6548C16.7394 15.8749 16.9467 16.1524 17.0973 16.4855C17.2479 16.8166 17.3222 17.2012 17.3222 17.6338V22.0319C17.3222 22.4644 17.2479 22.8472 17.0973 23.1802C16.9467 23.5132 16.7394 23.7888 16.4754 24.0108C16.2114 24.2309 15.8965 24.3974 15.5347 24.5084C15.1729 24.6194 14.7799 24.6749 14.3555 24.6749H9.84766V14.9926H14.3555V14.9907ZM14.158 23.2338C14.6469 23.2338 15.0341 23.117 15.3157 22.8816C15.5973 22.6462 15.742 22.3228 15.742 21.9075V17.7582C15.742 17.3429 15.5993 17.0175 15.3157 16.784C15.0341 16.5486 14.6469 16.43 14.158 16.43H11.4846V23.2338H14.158Z" fill="#1397ED"/>
<path d="M26.111 16.317V14.9907H19.4422V17.7907V21.8922V24.6922H26.111V23.3639H21.0947V21.8233V20.8606V20.1352H26.111L25.5771 18.8223H21.0947V16.317H26.111Z" fill="#1397ED"/>
<path d="M28.5283 14.9908H30.1828V23.3296H35.6919V24.6712H28.5283V14.9889V14.9908Z" fill="#1397ED"/>
<path d="M39.3392 19.6358H41.9539C42.437 19.6358 42.832 19.5037 43.141 19.2415C43.452 18.9774 43.6065 18.5985 43.6065 18.1008C43.6065 17.6032 43.4539 17.2319 43.1469 16.9315C42.8418 16.6329 42.4429 16.4817 41.952 16.4817H38.7603V24.6961H37.1058V15.0004H41.9833C42.4155 15.0004 42.8301 15.0807 43.2251 15.2434C43.6202 15.4042 43.9663 15.6243 44.2655 15.8999C44.5628 16.1774 44.7994 16.5047 44.9794 16.8836C45.1573 17.2607 45.2473 17.6664 45.2473 18.0989C45.2473 18.5315 45.1573 18.9583 44.9794 19.3238C44.8014 19.6874 44.5609 20.0013 44.2597 20.2635C43.9566 20.5276 43.6065 20.7305 43.2056 20.8721C42.8047 21.0157 42.3901 21.0865 41.9539 21.0865H40.0061L39.3412 19.6339L39.3392 19.6358Z" fill="#1397ED"/>
<path d="M48.6658 18.7534H53.3281V14.9907H54.9826V24.673H53.3281V20.3151H48.6658V24.673H47.0113V14.9907H48.6658V18.7534Z" fill="#1397ED"/>
<path d="M57.7538 14.9907H59.4083V24.673H57.7538V14.9907Z" fill="#1397ED"/>
<path d="M69.1847 24.6577H66.7831C66.0204 24.6577 65.3476 24.541 64.7688 24.3056C64.1899 24.0701 63.7049 23.739 63.3118 23.3103C62.9207 22.8816 62.6254 22.3725 62.422 21.7812C62.2205 21.1898 62.1188 20.5352 62.1188 19.8175C62.1188 19.0998 62.2205 18.4146 62.422 17.8194C62.6234 17.2223 62.9207 16.717 63.3118 16.2979C63.7049 15.8768 64.1918 15.5553 64.7746 15.3295C65.3574 15.1036 66.0341 14.9907 66.7948 14.9907H68.9148V16.428H66.6814C66.2199 16.428 65.8111 16.518 65.4533 16.6979C65.0934 16.8778 64.7942 17.1247 64.5536 17.4367C64.3131 17.7505 64.1332 18.1123 64.01 18.5218C63.8868 18.9333 63.8261 19.3639 63.8261 19.8156C63.8261 20.2673 63.8868 20.7266 64.01 21.1362C64.1332 21.5477 64.3131 21.9036 64.5536 22.2079C64.7942 22.5123 65.0993 22.7553 65.4669 22.9352C65.8346 23.1151 66.257 23.2051 66.7381 23.2051H69.1827V24.6558L69.1847 24.6577Z" fill="#18488A"/>
<path d="M70.937 19.8731C70.937 18.9793 71.0484 18.2118 71.2694 17.5707C71.4904 16.9295 71.8014 16.407 72.2042 16.0013C72.6032 15.5955 73.0843 15.2989 73.6436 15.1094C74.2029 14.92 74.8248 14.8262 75.5015 14.8262C76.1781 14.8262 76.802 14.92 77.3672 15.1094C77.9324 15.2989 78.4135 15.5955 78.8163 16.0013C79.2173 16.407 79.5263 16.9295 79.7472 17.5707C79.9682 18.2118 80.0797 18.9793 80.0797 19.8731C80.0797 20.7668 79.9682 21.5458 79.7472 22.1831C79.5263 22.8204 79.2153 23.341 78.8163 23.7467C78.4135 24.1525 77.9324 24.4491 77.3672 24.6386C76.802 24.8262 76.1801 24.9219 75.5015 24.9219C74.8229 24.9219 74.2029 24.8262 73.6436 24.6386C73.0843 24.4491 72.6032 24.1525 72.2042 23.7467C71.8014 23.341 71.4904 22.8204 71.2694 22.1831C71.0484 21.5458 70.937 20.7783 70.937 19.8731ZM72.6482 19.8731C72.6482 20.518 72.7166 21.0692 72.8535 21.5267C72.9904 21.9822 73.1801 22.3554 73.4246 22.6463C73.669 22.9372 73.9702 23.1477 74.3242 23.2817C74.6762 23.4156 75.0693 23.4826 75.5034 23.4826C75.9376 23.4826 76.3287 23.4176 76.6847 23.2817C77.0367 23.1477 77.3379 22.9372 77.5882 22.6463C77.8385 22.3554 78.0302 21.9822 78.1671 21.5267C78.3059 21.0692 78.3724 20.52 78.3724 19.8731C78.3724 19.2262 78.3059 18.675 78.1671 18.2195C78.0302 17.764 77.8385 17.3889 77.5882 17.0999C77.3398 16.8089 77.0386 16.5984 76.6847 16.4625C76.3287 16.3286 75.9356 16.2635 75.5034 16.2635C75.0712 16.2635 74.6781 16.3286 74.3242 16.4625C73.9721 16.5965 73.671 16.8089 73.4246 17.0999C73.1801 17.3908 72.9884 17.764 72.8535 18.2195C72.7166 18.675 72.6482 19.2281 72.6482 19.8731Z" fill="#18488A"/>
<path d="M89.0817 14.9907H87.8437H81.9885V24.6711H83.641V16.4855H86.3261V24.6711H87.9806V16.4855H89.0817H90.566V24.6711H92.2205V16.4969L91.1488 14.9907H89.0817Z" fill="#18488A"/>
<path d="M35.8318 26.0528V27.7848C35.8318 29.7638 35.4857 31.5073 34.7992 33.0231C34.1128 34.5389 33.1662 35.8002 31.9635 36.8088C30.7588 37.8193 29.3292 38.5753 27.6747 39.0805C26.0183 39.5858 24.2249 39.8384 22.5782 39.8384H7.47849L0 32.493V17.8652H7.48827L7.47849 33.2758H21.6747C23.6226 33.2758 25.3846 32.7399 26.6734 31.6662C27.9622 30.5925 28.6076 29.1112 28.6076 27.2183V26.0528H35.8299H35.8318Z" fill="#1397ED"/>
<path d="M7.47852 33.2777V39.8385H12.8488L12.794 33.272L7.47852 33.2777Z" fill="url(#paint0_linear_36_31271)"/>
<path d="M28.6701 26.1198H35.8064V27.8614L28.6623 27.8384L28.6701 26.1198Z" fill="url(#paint1_linear_36_31271)"/>
<path d="M35.8318 13.7856V12.0536C35.8318 10.0746 35.4857 8.3311 34.7992 6.81531C34.1128 5.29952 33.1662 4.03828 31.9635 3.02966C30.7588 2.01914 29.3292 1.26316 27.6747 0.757895C26.0183 0.252632 24.2249 0 22.2907 0H7.47849L0 7.34545V21.9732H7.48827L7.47849 6.56268H21.3872C23.6226 6.56268 25.3846 7.09856 26.6734 8.17225C27.9622 9.24593 28.6076 10.7273 28.6076 12.6201V13.7856H35.8299H35.8318Z" fill="#1397ED"/>
<path d="M7.47852 6.56268V0H12.8488L12.794 6.56842L7.47852 6.56268Z" fill="url(#paint2_linear_36_31271)"/>
<path d="M35.7985 13.7417H28.6623V12.002L35.8064 12.0249L35.7985 13.7417Z" fill="url(#paint3_linear_36_31271)"/>
</g>
<defs>
<linearGradient id="paint0_linear_36_31271" x1="12.794" y1="36.5562" x2="7.49416" y2="36.5562" gradientUnits="userSpaceOnUse">
<stop stop-color="#1397ED"/>
<stop offset="0.38" stop-color="#0D8DDE"/>
<stop offset="1" stop-color="#0077BF"/>
</linearGradient>
<linearGradient id="paint1_linear_36_31271" x1="32.2353" y1="27.8442" x2="32.2353" y2="26.1236" gradientUnits="userSpaceOnUse">
<stop stop-color="#1397ED"/>
<stop offset="0.31" stop-color="#1194E9"/>
<stop offset="0.59" stop-color="#0C8CDE"/>
<stop offset="0.86" stop-color="#0580CC"/>
<stop offset="1" stop-color="#0077BF"/>
</linearGradient>
<linearGradient id="paint2_linear_36_31271" x1="12.794" y1="3.28421" x2="7.49416" y2="3.28421" gradientUnits="userSpaceOnUse">
<stop stop-color="#1397ED"/>
<stop offset="0.38" stop-color="#0D8DDE"/>
<stop offset="1" stop-color="#0077BF"/>
</linearGradient>
<linearGradient id="paint3_linear_36_31271" x1="32.2353" y1="12.0192" x2="32.2353" y2="13.7378" gradientUnits="userSpaceOnUse">
<stop stop-color="#4AA1D9"/>
<stop offset="0.25" stop-color="#469ED7"/>
<stop offset="0.47" stop-color="#3B98D3"/>
<stop offset="0.69" stop-color="#298ECD"/>
<stop offset="0.9" stop-color="#0F7FC4"/>
<stop offset="1" stop-color="#0077BF"/>
</linearGradient>
<clipPath id="clip0_36_31271">
<rect width="92.3077" height="40" fill="white"/>
</clipPath>
</defs>
</svg>
